<svg xmlns="http://www.w3.org/2000/svg" width="58" height="54" viewBox="0 0 58 54" fill="none"><path d="M53.5613 2.88276C51.5972 0.918687 48.3713 1.06301 46.5905 3.19462L38.5469 12.8224L43.6218 17.8973L53.2496 9.85363C55.3809 8.07274 55.5252 4.84671 53.5613 2.88276Z" stroke="#DAED1A" stroke-width="2" stroke-miterlimit="10" stroke-linecap="round" stroke-linejoin="round"></path><path d="M57.1506 19.3477V44.9823C57.1506 49.136 53.7836 52.5041 49.6299 52.5041H42.6748C46.8285 52.5041 50.1954 49.136 50.1954 44.9823V19.3477H57.1506Z" stroke="#DAED1A" stroke-width="2" stroke-miterlimit="10" stroke-linecap="round" stroke-linejoin="round"></path><path d="M10.0608 15.3598C11.3105 15.3598 12.3237 14.3467 12.3237 13.0969C12.3237 11.8471 11.3105 10.834 10.0608 10.834C8.81099 10.834 7.79785 11.8471 7.79785 13.0969C7.79785 14.3467 8.81099 15.3598 10.0608 15.3598Z" stroke="#DAED1A" stroke-width="2" stroke-miterlimit="10" stroke-linecap="round" stroke-linejoin="round"></path><path d="M18.0529 15.3598C19.3027 15.3598 20.3159 14.3467 20.3159 13.0969C20.3159 11.8471 19.3027 10.834 18.0529 10.834C16.8032 10.834 15.79 11.8471 15.79 13.0969C15.79 14.3467 16.8032 15.3598 18.0529 15.3598Z" stroke="#DAED1A" stroke-width="2" stroke-miterlimit="10" stroke-linecap="round" stroke-linejoin="round"></path><path d="M26.0451 15.3598C27.2949 15.3598 28.308 14.3467 28.308 13.0969C28.308 11.8471 27.2949 10.834 26.0451 10.834C24.7954 10.834 23.7822 11.8471 23.7822 13.0969C23.7822 14.3467 24.7954 15.3598 26.0451 15.3598Z" stroke="#DAED1A" stroke-width="2" stroke-miterlimit="10" stroke-linecap="round" stroke-linejoin="round"></path><path d="M38.547 12.8223L43.5002 6.89365C43.229 6.86408 42.9539 6.84766 42.6747 6.84766H8.37137C4.21769 6.84766 0.849609 10.2146 0.849609 14.3694V19.3474H29.2728C31.0918 17.1368 31.5654 14.2453 38.547 12.8223Z" stroke="#DAED1A" stroke-width="2" stroke-miterlimit="10" stroke-linecap="round" stroke-linejoin="round"></path><path d="M43.6219 17.8964C43.5214 18.4003 43.3931 18.8834 43.2412 19.3466H50.1954V14.3686C50.1954 13.7535 50.1199 13.1562 49.9807 12.584L43.6219 17.8964Z" stroke="#DAED1A" stroke-width="2" stroke-miterlimit="10" stroke-linecap="round" stroke-linejoin="round"></path><path d="M54.3544 8.51758C54.0802 9.01205 53.7118 9.46642 53.2495 9.8526L49.9805 12.5838C50.1197 13.1561 50.1952 13.7533 50.1952 14.3684V19.3465H57.1503V14.3684C57.1503 12.0044 56.0593 9.89644 54.3544 8.51758Z" stroke="#DAED1A" stroke-width="2" stroke-miterlimit="10" stroke-linecap="round" stroke-linejoin="round"></path><path d="M43.241 19.3477C41.2519 25.413 35.055 27.9169 29.538 24.8586C27.7016 23.8405 27.3455 21.3383 28.8237 19.847C28.9839 19.6853 29.1323 19.5185 29.2728 19.3477H0.849609V44.9823C0.849609 49.136 4.21769 52.5041 8.37137 52.5041H42.6747C46.8284 52.5041 50.1954 49.136 50.1954 44.9823V19.3477H43.241Z" stroke="#DAED1A" stroke-width="2" stroke-miterlimit="10" stroke-linecap="round" stroke-linejoin="round"></path><path d="M38.5466 12.8223C31.0255 14.3552 31.0575 17.5924 28.8233 19.8466C27.3452 21.338 27.7011 23.8401 29.5375 24.8582C35.4759 28.1501 42.2029 24.9986 43.6213 17.8972L38.5466 12.8223Z" stroke="#DAED1A" stroke-width="2" stroke-miterlimit="10" stroke-linecap="round" stroke-linejoin="round"></path><path d="M19.2678 30.2168H10.7052C9.09957 30.2168 7.79785 31.5185 7.79785 33.1242V41.6868C7.79785 43.2924 9.09957 44.5941 10.7052 44.5941H19.2678C20.8735 44.5941 22.1752 43.2924 22.1752 41.6868V33.1242C22.1752 31.5185 20.8735 30.2168 19.2678 30.2168Z" stroke="#DAED1A" stroke-width="2" stroke-miterlimit="10" stroke-linecap="round" stroke-linejoin="round"></path><path d="M41.2974 30.6719H29.0196C27.7359 30.6719 26.6953 31.7125 26.6953 32.9962C26.6953 34.2799 27.7359 35.3205 29.0196 35.3205H41.2975C42.5812 35.3205 43.6218 34.2799 43.6218 32.9962C43.6218 31.7125 42.5811 30.6719 41.2974 30.6719Z" stroke="#DAED1A" stroke-width="2" stroke-miterlimit="10" stroke-linecap="round" stroke-linejoin="round"></path><path d="M41.2974 39.4905H29.0196C27.7359 39.4905 26.6953 40.5311 26.6953 41.8148C26.6953 43.0985 27.7359 44.1391 29.0196 44.1391H41.2975C42.5812 44.1391 43.6218 43.0985 43.6218 41.8148C43.6218 40.5312 42.5811 39.4905 41.2974 39.4905Z" stroke="#DAED1A" stroke-width="2" stroke-miterlimit="10" stroke-linecap="round" stroke-linejoin="round"></path></svg>