<svg xmlns="http://www.w3.org/2000/svg" width="46" height="58" viewBox="0 0 46 58" fill="none"><path d="M44.7939 56.2424H6.21515C3.4909 56.2424 1.20605 54.0454 1.20605 51.2333V5.27272C1.20605 3.33939 2.78787 1.75757 4.72121 1.75757H41.1909C43.1242 1.75757 44.7061 3.33939 44.7061 5.27272V56.2424H44.7939Z" stroke="#DAED1A" stroke-width="2" stroke-miterlimit="10" stroke-linecap="round" stroke-linejoin="round"></path><path d="M1.20605 51.2332C1.20605 53.9575 3.40302 56.2423 6.21515 56.2423H44.7061V46.2241H6.21515C3.4909 46.2241 1.20605 48.509 1.20605 51.2332Z" stroke="#DAED1A" stroke-width="2" stroke-miterlimit="10" stroke-linecap="round" stroke-linejoin="round"></path><path d="M11.8398 51.2341H34.1611" stroke="#DAED1A" stroke-width="2" stroke-miterlimit="10" stroke-linecap="round" stroke-linejoin="round"></path><path d="M16.4092 24.3417L29.9425 7.99629C31.4365 6.23872 34.0728 6.06296 35.7425 7.73266C37.3243 9.31447 37.2365 11.7751 35.7425 13.269C35.6546 13.3569 18.8698 27.2417 18.8698 27.2417" stroke="#DAED1A" stroke-width="2" stroke-miterlimit="10" stroke-linecap="round" stroke-linejoin="round"></path><path d="M17.7274 31.1087C15.794 32.6905 9.11523 33.745 9.11523 33.745C9.11523 33.745 11.6637 30.5814 12.1031 26.539C12.3667 24.4299 15.6183 23.0238 17.7274 25.1329C19.3971 26.8026 19.5728 29.6147 17.7274 31.1087Z" stroke="#DAED1A" stroke-width="2" stroke-miterlimit="10" stroke-linecap="round" stroke-linejoin="round"></path><path d="M34.6 27.5054L30.3818 31.8114L36.6212 33.7448L34.6 27.5054Z" stroke="#DAED1A" stroke-width="2" stroke-miterlimit="10" stroke-linecap="round" stroke-linejoin="round"></path><path d="M22.6484 24.0774L30.3818 31.8107L34.6 27.5047L27.5697 20.4744" stroke="#DAED1A" stroke-width="2" stroke-miterlimit="10" stroke-linecap="round" stroke-linejoin="round"></path><path d="M23.1759 16.1684L13.5092 6.5896C11.3122 7.29263 9.99405 8.69869 9.29102 10.8078L19.3092 20.7381" stroke="#DAED1A" stroke-width="2" stroke-miterlimit="10" stroke-linecap="round" stroke-linejoin="round"></path><path d="M16.1456 9.13843L11.9275 13.3566L10.4335 14.8505C9.73049 15.5536 9.73049 16.6081 10.4335 17.3112L13.5972 20.4748" stroke="#DAED1A" stroke-width="2" stroke-miterlimit="10" stroke-linecap="round" stroke-linejoin="round"></path><path d="M16.3213 37.4353H29.9425" stroke="#DAED1A" stroke-width="2" stroke-miterlimit="10" stroke-linecap="round" stroke-linejoin="round"></path><path d="M9.37891 41.3901H36.885" stroke="#DAED1A" stroke-width="2" stroke-miterlimit="10" stroke-linecap="round" stroke-linejoin="round"></path></svg>