<svg xmlns="http://www.w3.org/2000/svg" width="52" height="33" viewBox="0 0 52 33" fill="none"><path d="M47.4687 0H26.3984C23.8999 0 21.8671 2.03272 21.8671 4.53124V4.98437H2.83593C1.33677 4.98437 0.117188 6.20406 0.117188 7.70311V25.6015C0.117188 27.1006 1.33677 28.3203 2.83593 28.3203H4.00647V31.7942C4.00647 32.2525 4.28253 32.6655 4.70575 32.8409C4.84588 32.8989 4.99303 32.9271 5.13905 32.9271C5.43381 32.9271 5.72358 32.812 5.94029 32.5953L10.2153 28.3203H32.7172C34.2164 28.3203 35.4359 27.1006 35.4359 25.6015V22.2031H47.4687C49.9672 22.2031 51.9999 20.1704 51.9999 17.6718V4.53124C51.9998 2.03272 49.9672 0 47.4687 0ZM33.1703 25.6015C33.1703 25.8514 32.9671 26.0546 32.7172 26.0546H9.74608C9.44565 26.0546 9.15747 26.174 8.94506 26.3864L6.2722 29.0594V27.1874C6.2722 26.5619 5.76504 26.0546 5.13939 26.0546H2.83593C2.58603 26.0546 2.38281 25.8514 2.38281 25.6015V7.70311C2.38281 7.45321 2.58603 7.24999 2.83593 7.24999H21.8671V17.6718C21.8671 20.1704 23.8999 22.2031 26.3984 22.2031H33.1703V25.6015ZM49.7343 17.6718C49.7343 18.9211 48.7179 19.9375 47.4687 19.9375H26.3984C25.1491 19.9375 24.1328 18.9211 24.1328 17.6718V4.53124C24.1328 3.28198 25.1491 2.26562 26.3984 2.26562H47.4687C48.7179 2.26562 49.7343 3.28198 49.7343 4.53124V17.6718Z" fill="#DAED1A"></path></svg>