<svg xmlns="http://www.w3.org/2000/svg" width="72" height="19" viewBox="0 0 72 19" fill="none"><g clip-path="url(#clip0_1_434)"><path d="M72 1.50253V16.9311C72 17.2721 71.8645 17.5991 71.6234 17.8402C71.3823 18.0813 71.0553 18.2168 70.7143 18.2168H55.2857C54.9447 18.2168 54.6177 18.0813 54.3766 17.8402C54.1355 17.5991 54 17.2721 54 16.9311V1.50253C54 1.16153 54.1355 0.834502 54.3766 0.59338C54.6177 0.352258 54.9447 0.216797 55.2857 0.216797L70.7143 0.216797C71.0553 0.216797 71.3823 0.352258 71.6234 0.59338C71.8645 0.834502 72 1.16153 72 1.50253ZM59.1428 6.64533H56.5715V15.6453H59.1428V6.64533ZM59.4643 4.074C59.4643 3.18638 58.7447 2.4668 57.8572 2.4668C56.9696 2.4668 56.25 3.18638 56.25 4.074C56.25 4.96148 56.9696 5.68106 57.8572 5.68106C58.7447 5.68106 59.4643 4.96148 59.4643 4.074ZM69.4285 10.8753C69.4285 8.0468 68.49 6.38827 65.7515 6.38827C65.1797 6.38831 64.6167 6.52908 64.1122 6.79813C63.6077 7.06719 63.1771 7.45627 62.8585 7.93106V6.64533H60.4285V15.6453H63V11.4411C62.9662 11.1359 62.9956 10.8271 63.0864 10.5338C63.1771 10.2404 63.3273 9.96896 63.5275 9.73619C63.7277 9.50342 63.9737 9.31434 64.2501 9.18074C64.5265 9.04713 64.8275 8.97186 65.1343 8.95959C66.6257 8.95959 66.8572 10.4253 66.8572 11.4411V15.6453H69.4285V10.8753Z" fill="#0A66C2"></path><path d="M28.4143 10.7598L32.3872 15.6455H29.25L25.7143 11.1585V15.6455H23.1428V2.78845H25.7143V10.3485L28.98 6.64552H32.2585L28.4143 10.7598ZM18.1285 6.38845C17.5655 6.39688 17.0129 6.54164 16.5181 6.81033C16.0232 7.07902 15.6009 7.46364 15.2872 7.93125V6.64552H12.8572V15.6455H15.4285V11.4412C15.3948 11.1361 15.4242 10.8272 15.5149 10.5339C15.6057 10.2406 15.7558 9.96915 15.956 9.73637C16.1562 9.5036 16.4022 9.31453 16.6786 9.18093C16.955 9.04732 17.256 8.97205 17.5628 8.95978C19.0543 8.95978 19.2857 10.4255 19.2857 11.4412V15.6455H21.8572V10.8755C21.8572 8.04698 20.9185 6.38845 18.18 6.38845H18.1285ZM41.1428 11.3512C41.1526 11.5397 41.1526 11.7285 41.1428 11.917H34.3928V12.007C34.5024 12.5431 34.7994 13.0227 35.2306 13.3596C35.6618 13.6966 36.199 13.8688 36.7457 13.8455C37.1795 13.8644 37.6125 13.7955 38.019 13.6431C38.4255 13.4907 38.7971 13.2578 39.1115 12.9585L40.8215 14.2442C40.2795 14.7973 39.6276 15.2306 38.9079 15.5163C38.1881 15.8019 37.4165 15.9336 36.6428 15.9027C36.002 15.9432 35.36 15.8457 34.7602 15.6168C34.1603 15.388 33.6165 15.033 33.1656 14.576C32.7147 14.1189 32.3671 13.5704 32.1463 12.9676C31.9255 12.3647 31.8366 11.7214 31.8857 11.0813C31.8726 10.4493 31.9897 9.82139 32.2299 9.23669C32.47 8.65199 32.828 8.12302 33.2815 7.68274C33.7351 7.24247 34.2745 6.90033 34.866 6.67765C35.4576 6.45497 36.0887 6.35653 36.72 6.38845C39.1372 6.38845 41.1428 8.09845 41.1428 11.3512ZM38.7515 10.2455C38.742 9.99085 38.6808 9.74077 38.5716 9.51052C38.4623 9.28028 38.3074 9.07468 38.1161 8.90627C37.9248 8.73786 37.7013 8.61015 37.4591 8.53094C37.2168 8.45172 36.961 8.42266 36.7072 8.44552C35.5766 8.32331 34.5527 9.11967 34.3928 10.2455H38.7515ZM2.57147 2.78845H0V15.6455H7.71427V13.0743H2.57147V2.78845ZM48.8572 2.78845H51.4285V15.6455H48.9985V14.7455C48.69 15.1257 48.2967 15.4283 47.8502 15.6293C47.4037 15.8302 46.9164 15.9239 46.4272 15.9027C45.8296 15.8874 45.2414 15.75 44.6988 15.4989C44.1562 15.2479 43.6707 14.8886 43.2721 14.443C42.8735 13.9975 42.5703 13.4751 42.381 12.908C42.1917 12.341 42.1204 11.7412 42.1715 11.1455C42.1108 10.549 42.1749 9.94644 42.3598 9.37608C42.5446 8.80572 42.8462 8.2801 43.2453 7.83264C43.6444 7.38519 44.1322 7.02571 44.6778 6.77707C45.2234 6.52843 45.8147 6.39609 46.4143 6.38845C46.8608 6.36889 47.3068 6.43839 47.7262 6.59291C48.1456 6.74742 48.5301 6.98386 48.8572 7.28845V2.78845ZM49.05 11.1455C49.0904 10.8486 49.0667 10.5465 48.9805 10.2596C48.8943 9.97261 48.7475 9.70749 48.5501 9.48206C48.3527 9.25664 48.1093 9.07617 47.8362 8.95282C47.5632 8.82946 47.2668 8.76609 46.9672 8.76698C45.7372 8.85628 44.8051 9.91406 44.8715 11.1455C44.8051 12.377 45.7372 13.4349 46.9672 13.5242C47.2668 13.5251 47.5632 13.4617 47.8363 13.3383C48.1093 13.215 48.3528 13.0345 48.5502 12.8091C48.7476 12.5836 48.8943 12.3185 48.9805 12.0315C49.0668 11.7445 49.0905 11.4424 49.05 11.1455ZM10.2857 2.53125C9.87223 2.53711 9.47636 2.69965 9.17804 2.98606C8.87973 3.27247 8.70121 3.66141 8.67853 4.07433C8.67853 4.96181 9.39811 5.68139 10.2857 5.68139C11.1734 5.68139 11.8927 4.96167 11.8927 4.07433C11.8699 3.66145 11.6914 3.27258 11.3931 2.9862C11.0949 2.69982 10.6992 2.53714 10.2857 2.53125ZM9 15.6455H11.5715V6.64552H9V15.6455Z" fill="white"></path></g><defs><clipPath id="clip0_1_434"><rect width="72" height="18" fill="white" transform="translate(0 0.216797)"></rect></clipPath></defs></svg>