<svg xmlns="http://www.w3.org/2000/svg" width="84" height="19" viewBox="0 0 84 19" fill="none"><g clip-path="url(#clip0_1_455)"><path d="M83.7819 8.30878V6.83524H81.9521V4.54465L81.8906 4.56347L80.1719 5.0894L80.1382 5.09971V6.83524H77.4256V5.86847C77.4256 5.41831 77.5262 5.07369 77.7247 4.84411C77.9218 4.61698 78.2035 4.50162 78.5629 4.50162C78.8214 4.50162 79.0888 4.56249 79.3582 4.68244L79.4256 4.71254V3.16094L79.3938 3.14949C79.1426 3.059 78.801 3.01367 78.3776 3.01367C77.8439 3.01367 77.359 3.12969 76.936 3.35993C76.5192 3.58408 76.1757 3.92359 75.9468 4.33782C75.7145 4.75574 75.5966 5.23831 75.5966 5.77242V6.8354H74.3226V8.30894H75.5966V14.5162H77.4256V8.30878H80.1382V12.2534C80.1382 13.878 80.9044 14.7014 82.4157 14.7014C82.6769 14.6999 82.9372 14.6709 83.1923 14.615C83.4639 14.5566 83.6489 14.4982 83.7578 14.4358L83.7819 14.4216V12.9345L83.7076 12.9837C83.6083 13.05 83.4847 13.104 83.3398 13.1441C83.1941 13.185 83.0725 13.2056 82.9784 13.2056C82.6243 13.2056 82.3625 13.1102 82.1999 12.9219C82.0356 12.732 81.9521 12.3997 81.9521 11.935V8.30878H83.7819ZM70.238 13.2058C69.5742 13.2058 69.0509 12.9855 68.6819 12.552C68.3109 12.1161 68.1227 11.4949 68.1227 10.7054C68.1227 9.89098 68.3109 9.25362 68.6822 8.81C69.0512 8.36949 69.5696 8.1458 70.2232 8.1458C70.8572 8.1458 71.3621 8.35934 71.7237 8.78104C72.0871 9.20469 72.2716 9.83698 72.2716 10.6609C72.2716 11.4949 72.0981 12.1357 71.7561 12.5643C71.4166 12.9898 70.9058 13.2058 70.238 13.2058ZM70.3195 6.65016C69.053 6.65016 68.0469 7.02129 67.3299 7.75324C66.613 8.48534 66.2496 9.49825 66.2496 10.7645C66.2496 11.967 66.6043 12.9343 67.304 13.6391C68.0038 14.344 68.9561 14.7011 70.1341 14.7011C71.3619 14.7011 72.3478 14.3249 73.0649 13.5828C73.7816 12.8415 74.1449 11.8381 74.1449 10.6013C74.1449 9.38011 73.804 8.40565 73.1316 7.70562C72.4588 7.00525 71.5124 6.65016 70.3195 6.65016ZM63.3005 6.65016C62.439 6.65016 61.7263 6.87058 61.1819 7.30504C60.6344 7.74211 60.3565 8.31549 60.3565 9.00914C60.3565 9.36964 60.4164 9.68987 60.5346 9.96151C60.6532 10.2341 60.837 10.474 61.0811 10.6755C61.3233 10.8753 61.6972 11.0845 62.1929 11.2973C62.6093 11.4688 62.9201 11.6139 63.1174 11.7281C63.3103 11.8402 63.4473 11.9528 63.5245 12.0624C63.5996 12.1696 63.6378 12.3166 63.6378 12.4977C63.6378 13.0138 63.2514 13.2648 62.4563 13.2648C62.1613 13.2648 61.8248 13.2033 61.4563 13.0819C61.0905 12.9623 60.7452 12.7871 60.4325 12.5627L60.3565 12.5083V14.2691L60.3844 14.2822C60.6432 14.4016 60.9695 14.5023 61.3541 14.5816C61.738 14.6608 62.0865 14.7012 62.3896 14.7012C63.3244 14.7012 64.0773 14.4798 64.6265 14.0428C65.1796 13.6026 65.4597 13.0159 65.4597 12.2981C65.4597 11.7805 65.3088 11.3364 65.0113 10.9783C64.7163 10.6233 64.2038 10.2971 63.489 10.009C62.9196 9.78036 62.5547 9.59071 62.4043 9.44507C62.2591 9.30435 62.1855 9.10536 62.1855 8.85353C62.1855 8.63 62.2765 8.45114 62.4632 8.30616C62.6514 8.16053 62.9132 8.0864 63.2414 8.0864C63.5463 8.0864 63.858 8.13451 64.1681 8.22876C64.478 8.32318 64.75 8.44967 64.9773 8.60415L65.0519 8.6552V6.9848L65.0233 6.97253C64.8138 6.88253 64.5373 6.80562 64.2018 6.74344C63.8674 6.68158 63.5641 6.65016 63.3005 6.65016ZM55.5883 13.2058C54.9246 13.2058 54.4012 12.9855 54.0323 12.552C53.6612 12.1161 53.4735 11.4949 53.4735 10.7054C53.4735 9.89098 53.6614 9.25362 54.0328 8.81C54.4015 8.36949 54.9197 8.1458 55.5736 8.1458C56.2077 8.1458 56.7125 8.35934 57.0742 8.78104C57.4376 9.20469 57.622 9.83698 57.622 10.6609C57.622 11.4949 57.4486 12.1357 57.1066 12.5643C56.7668 12.9898 56.2563 13.2058 55.5883 13.2058ZM55.67 6.65016C54.4031 6.65016 53.3971 7.02129 52.6804 7.75324C51.9636 8.48534 51.5999 9.49825 51.5999 10.7645C51.5999 11.9675 51.955 12.9343 52.6545 13.6391C53.3542 14.344 54.3064 14.7011 55.4848 14.7011C56.712 14.7011 57.6984 14.3249 58.4155 13.5828C59.132 12.8415 59.4955 11.8381 59.4955 10.6013C59.4955 9.38011 59.1545 8.40565 58.4819 7.70562C57.8089 7.00525 56.8627 6.65016 55.67 6.65016ZM48.8234 8.16544V6.83524H47.0167V14.5158H48.8233V10.5868C48.8233 9.91864 48.9748 9.3698 49.2738 8.95531C49.5688 8.54573 49.9622 8.33807 50.4421 8.33807C50.605 8.33807 50.7876 8.36491 50.9854 8.41809C51.1813 8.47078 51.3232 8.52805 51.4068 8.58827L51.4827 8.64342V6.82214L51.4532 6.80954C51.2852 6.73804 51.0471 6.70204 50.746 6.70204C50.2919 6.70204 49.8856 6.84784 49.5377 7.13502C49.2322 7.38751 49.0113 7.73376 48.8426 8.16544H48.8234ZM43.7813 6.65016C42.9525 6.65016 42.213 6.82804 41.5842 7.17838C40.9542 7.52938 40.4667 8.03093 40.1352 8.66829C39.8051 9.30434 39.6376 10.0473 39.6376 10.8757C39.6376 11.6013 39.8 12.2673 40.1211 12.8541C40.4425 13.4421 40.8974 13.902 41.4731 14.2211C42.0481 14.5397 42.7126 14.7012 43.4482 14.7012C44.3068 14.7012 45.0398 14.5296 45.6278 14.1912L45.6514 14.1774V12.5223L45.5756 12.5777C45.3051 12.7737 45.0073 12.9288 44.6916 13.0379C44.3722 13.1493 44.0813 13.2056 43.826 13.2056C43.117 13.2056 42.548 12.9839 42.1348 12.5466C41.7208 12.1086 41.5109 11.4938 41.5109 10.72C41.5109 9.94138 41.7298 9.31073 42.1612 8.84518C42.5914 8.38127 43.1615 8.14596 43.8558 8.14596C44.4496 8.14596 45.0282 8.34707 45.5756 8.74422L45.6514 8.7992V7.05516L45.627 7.04142C45.4208 6.92605 45.14 6.83082 44.7911 6.75865C44.4439 6.68665 44.1042 6.65016 43.7813 6.65016ZM38.3933 6.83524H36.5864V14.5158H38.3933V6.83524ZM37.5083 3.56333C37.211 3.56333 36.9516 3.66462 36.7386 3.86507C36.5245 4.06634 36.4159 4.31965 36.4159 4.61845C36.4159 4.91267 36.5232 5.16124 36.735 5.35711C36.9456 5.55233 37.2058 5.65133 37.5083 5.65133C37.8107 5.65133 38.0719 5.55233 38.2849 5.35744C38.4993 5.16124 38.6081 4.91267 38.6081 4.61845C38.6081 4.33013 38.5022 4.07927 38.2938 3.87325C38.0855 3.66756 37.821 3.56333 37.5083 3.56333ZM33.0005 6.26873V14.5157H34.8443V3.79847H32.2924L29.0486 11.7589L25.9009 3.79847H23.2451V14.5158H24.9779V6.26791H25.0374L28.3614 14.5158H29.6688L32.9409 6.26856L33.0005 6.26873Z" fill="#F4F8F7"></path><path d="M8.49911 8.71591H0V0.216797H8.49911V8.71591Z" fill="#F1511B"></path><path d="M17.8829 8.71591H9.38379V0.216797H17.8829V8.71591Z" fill="#80CC28"></path><path d="M8.49895 18.1026H0V9.60352H8.49895V18.1026Z" fill="#00ADEF"></path><path d="M17.8829 18.1026H9.38379V9.60352H17.8829V18.1026Z" fill="#FBBC09"></path></g><defs><clipPath id="clip0_1_455"><rect width="83.7818" height="18" fill="white" transform="translate(0 0.216797)"></rect></clipPath></defs></svg>