<svg xmlns="http://www.w3.org/2000/svg" width="41" height="19" viewBox="0 0 41 19" fill="none"><g clip-path="url(#clip0_1_445)"><path d="M0 2.41602V10.7826C0 13.9332 2.19713 16.0156 5.0625 16.0156C6.45637 16.0156 7.69837 15.4823 8.59612 14.5475V15.7895H10.5806V2.41602H8.57587V10.6645C8.57587 12.7857 7.1415 14.2184 5.29031 14.2184C3.41719 14.2184 2.00644 12.8228 2.00644 10.6645V2.4177H0V2.41602ZM12.555 2.41602V15.7895H14.4619V14.566C15.3411 15.4638 16.5831 16.0173 17.9381 16.0173C18.6088 16.0235 19.2741 15.8967 19.8954 15.6441C20.5168 15.3916 21.0819 15.0183 21.558 14.546C22.0341 14.0736 22.4119 13.5115 22.6694 12.8922C22.9268 12.2728 23.0589 11.6086 23.058 10.9379C23.0611 10.2656 22.9308 9.59936 22.6745 8.97782C22.4182 8.35629 22.0411 7.79181 21.565 7.31712C21.0889 6.84244 20.5233 6.46699 19.901 6.21256C19.2787 5.95812 18.6121 5.82975 17.9398 5.83489C17.2957 5.83408 16.6579 5.96221 16.0641 6.21175C15.4702 6.46128 14.9323 6.82716 14.4821 7.28783V2.4177H12.5533L12.555 2.41602ZM29.2089 5.85514C26.3621 5.85514 24.2055 8.16702 24.2055 10.9176C24.2055 13.8201 26.4566 15.997 29.3794 15.997C31.1563 15.997 32.6076 15.2157 33.5812 13.9163L32.1874 12.8853C31.4617 13.859 30.5066 14.3146 29.3794 14.3146C27.7374 14.3146 26.4212 13.1333 26.1529 11.5471H34.0791V10.9176C34.0791 8.01514 32.0169 5.85514 29.2089 5.85514ZM39.8318 5.96989C38.7619 5.96989 37.9789 6.46602 37.5013 7.24902V6.04583H35.5927V15.7895H37.5199V10.246C37.5199 8.73739 38.4379 7.76539 39.6984 7.76539H40.5V5.9682H39.8318V5.96989ZM29.1684 7.53589C30.6028 7.53589 31.8077 8.52814 32.1317 10.0165H26.19C26.5326 8.52814 27.7357 7.53589 29.1684 7.53589ZM17.8082 7.55614C19.6408 7.55614 21.1494 9.0462 21.1494 10.9379C21.153 11.8284 20.8033 12.684 20.1769 13.317C19.5506 13.95 18.6987 14.3088 17.8082 14.3146C17.3651 14.3155 16.9263 14.2287 16.517 14.0591C16.1076 13.8896 15.7359 13.6407 15.4233 13.3267C15.1106 13.0128 14.8632 12.6401 14.6953 12.2301C14.5274 11.8201 14.4423 11.3809 14.445 10.9379C14.4419 10.4946 14.5266 10.0551 14.6941 9.64475C14.8617 9.23438 15.1089 8.86123 15.4214 8.54685C15.7339 8.23247 16.1055 7.98307 16.5149 7.81303C16.9242 7.64299 17.3632 7.55568 17.8065 7.55614H17.8082Z" fill="#F4F8F7"></path></g><defs><clipPath id="clip0_1_445"><rect width="40.5" height="18" fill="white" transform="translate(0 0.216797)"></rect></clipPath></defs></svg>